<?xml version="1.0" encoding="utf-8"?>
<!-- Generator: Adobe Illustrator 25.2.3, SVG Export Plug-In . SVG Version: 6.00 Build 0)  -->
<svg version="1.1" id="Layer_1" xmlns="http://www.w3.org/2000/svg" xmlns:xlink="http://www.w3.org/1999/xlink" x="0px" y="0px"
	 viewBox="0 0 650 265" style="enable-background:new 0 0 650 265;" xml:space="preserve">
<style type="text/css">
	.st0{fill-rule:evenodd;clip-rule:evenodd;fill:#FFFFFF;stroke:#FA1100;stroke-width:2.0814;}
	.st1{fill:none;stroke:#FA1100;stroke-width:2.0814;}
	.st2{fill-rule:evenodd;clip-rule:evenodd;fill:#FA1100;}
	.st3{fill-rule:evenodd;clip-rule:evenodd;fill:#FFFFFF;stroke:#FA1100;stroke-width:2.3416;}
	.st4{fill:none;stroke:#FA1100;stroke-width:2.0814;stroke-linecap:square;}
	.st5{fill:#FA1100;}
</style>
<desc>Created with Sketch.</desc>
<g id="Website">
	<g id="Group-32" transform="translate(0.000000, 3.000000)">
		<path id="Case" class="st0" d="M126,38.8c0-4,3.3-7.3,7.3-7.3h253.6c4,0,7.3,3.3,7.3,7.3v173.5c0,4-3.3,7.3-7.3,7.3H133.3
			c-4,0-7.3-3.3-7.3-7.3V38.8z"/>
		<path id="Case_1_" class="st0" d="M142.4,50.7c0-1.7,1.4-3.1,3.1-3.1h228.8c1.7,0,3.1,1.4,3.1,3.1V180c0,1.7-1.4,3.1-3.1,3.1
			H145.5c-1.7,0-3.1-1.4-3.1-3.1V50.7z"/>
		<path id="Case_2_" class="st0" d="M241,219.6h38.5l2.6,33.6h-43.6L241,219.6z"/>
		<path id="Keyboard" class="st0" d="M222.3,260.4v-3.5c0-2.1,1.7-3.8,3.8-3.8h68.2c2.1,0,3.8,1.7,3.8,3.8v3.5
			c0,0.1-0.1,0.3-0.3,0.3h-75.2C222.5,260.7,222.3,260.6,222.3,260.4z"/>
		<ellipse id="Oval-6" class="st1" cx="260.2" cy="202.8" rx="4.8" ry="4.8"/>
		<path id="Case_3_" class="st0" d="M107.5,159.7h39.1c3.4,0,6.2,2.8,6.2,6.2v88.5c0,3.4-2.8,6.2-6.2,6.2h-39.1
			c-3.4,0-6.2-2.8-6.2-6.2V166C101.3,162.5,104.1,159.7,107.5,159.7z"/>
		<path id="Case_4_" class="st0" d="M101.3,170.9h51.5v74.7h-51.5V170.9z"/>
		<path id="Rectangle-11" class="st2" d="M115.9,164.2h22.7c0.6,0,1,0.5,1,1v0c0,0.6-0.5,1-1,1h-22.7c-0.6,0-1-0.5-1-1v0
			C114.8,164.6,115.3,164.2,115.9,164.2z"/>
		<path id="Rectangle-11_1_" class="st2" d="M127.2,250L127.2,250c1.6,0,3,1.3,3,3v0c0,1.6-1.3,3-3,3h0c-1.6,0-3-1.3-3-3v0
			C124.2,251.4,125.5,250,127.2,250z"/>
		<ellipse id="Oval-6_1_" class="st0" cx="115.9" cy="208.1" rx="3.9" ry="3.9"/>
		<path id="Rectangle-11_2_" class="st2" d="M126,201.4h16.1c0.6,0,1,0.5,1,1v0c0,0.6-0.5,1-1,1H126c-0.6,0-1-0.5-1-1v0
			C125,201.8,125.4,201.4,126,201.4z"/>
		<path id="Rectangle-11_3_" class="st2" d="M126,207.1h10.9c0.6,0,1,0.5,1,1v0c0,0.6-0.5,1-1,1H126c-0.6,0-1-0.5-1-1v0
			C125,207.6,125.4,207.1,126,207.1z"/>
		<path id="Rectangle-11_4_" class="st2" d="M126,212.8h5.7c0.6,0,1,0.5,1,1v0c0,0.6-0.5,1-1,1H126c-0.6,0-1-0.5-1-1v0
			C125,213.3,125.4,212.8,126,212.8z"/>
		<ellipse id="Oval-7" class="st0" cx="74.8" cy="168.7" rx="40" ry="39.9"/>
		<path id="Case_5_" class="st0" d="M325.9,120.5h180.2c3.4,0,6.2,2.8,6.2,6.2v116.8c0,3.4-2.8,6.2-6.2,6.2H325.9
			c-3.4,0-6.2-2.8-6.2-6.2V126.7C319.7,123.3,322.5,120.5,325.9,120.5z"/>
		<path id="Keyboard_1_" class="st0" d="M306.4,250v5.2c0,3,2.4,5.5,5.5,5.5h208.3c3,0,5.5-2.4,5.5-5.5V250c0-0.1-0.1-0.3-0.3-0.3
			H306.7C306.5,249.8,306.4,249.9,306.4,250z"/>
		<path id="Notch" class="st0" d="M430.4,249.9l-29.2,0c1.2,3.1,4.1,5.2,7.5,5.2h14.1C426.3,255.1,429.3,253,430.4,249.9z"/>
		<path id="Screen" class="st0" d="M330.4,132.7h171.2c1.1,0,2.1,0.9,2.1,2.1v100.9c0,1.1-0.9,2.1-2.1,2.1H330.4
			c-1.1,0-2.1-0.9-2.1-2.1V134.8C328.3,133.6,329.2,132.7,330.4,132.7z"/>
		<ellipse id="Oval-3" class="st2" cx="254.4" cy="50" rx="1.3" ry="1.3"/>
		<path id="Case_6_" class="st0" d="M179.9,12h120.3v115.3c0,4-3.3,7.3-7.3,7.3H187.2c-4,0-7.3-3.3-7.3-7.3V12z"/>
		<path id="Case_7_" class="st0" d="M179.9,6.2c0-4,3.3-7.3,7.3-7.3h105.7c4,0,7.3,3.3,7.3,7.3V14H179.9V6.2z"/>
		<ellipse id="Oval-5" class="st2" cx="191.1" cy="6.5" rx="2.3" ry="2.3"/>
		<ellipse id="Oval-5_1_" class="st2" cx="198.9" cy="6.5" rx="2.3" ry="2.3"/>
		<ellipse id="Oval-5_2_" class="st2" cx="206.7" cy="6.5" rx="2.3" ry="2.3"/>
		<path id="Rectangle-11_5_" class="st2" d="M195.5,87.9h2.6c0.6,0,1,0.5,1,1v0c0,0.6-0.5,1-1,1h-2.6c-0.6,0-1-0.5-1-1v0
			C194.5,88.4,194.9,87.9,195.5,87.9z"/>
		<path id="Rectangle-11_6_" class="st2" d="M195.5,35.9h2.6c0.6,0,1,0.5,1,1l0,0c0,0.6-0.5,1-1,1h-2.6c-0.6,0-1-0.5-1-1l0,0
			C194.5,36.4,194.9,35.9,195.5,35.9z"/>
		<path id="Rectangle-11_7_" class="st2" d="M203.3,35.9h7c0.6,0,1,0.5,1,1c0,0.6-0.5,1-1,1h-7c-0.6,0-1-0.5-1-1
			C202.3,36.4,202.8,35.9,203.3,35.9z"/>
		<path id="Rectangle-11_8_" class="st2" d="M215,35.9h7c0.6,0,1,0.5,1,1c0,0.6-0.5,1-1,1h-7c-0.6,0-1-0.5-1-1
			C214,36.4,214.5,35.9,215,35.9z"/>
		<path id="Rectangle-11_9_" class="st2" d="M226.8,35.9h13c0.6,0,1,0.5,1,1c0,0.6-0.5,1-1,1h-13c-0.6,0-1-0.5-1-1
			C225.7,36.4,226.2,35.9,226.8,35.9z"/>
		<path id="Rectangle-11_10_" class="st2" d="M244.5,35.9h19.3c0.6,0,1,0.5,1,1c0,0.6-0.5,1-1,1h-19.3c-0.6,0-1-0.5-1-1
			C243.4,36.4,243.9,35.9,244.5,35.9z"/>
		<path id="Rectangle-11_11_" class="st2" d="M195.5,46.3h2.6c0.6,0,1,0.5,1,1l0,0c0,0.6-0.5,1-1,1h-2.6c-0.6,0-1-0.5-1-1l0,0
			C194.5,46.8,194.9,46.3,195.5,46.3z"/>
		<path id="Rectangle-11_12_" class="st2" d="M195.5,56.7h2.6c0.6,0,1,0.5,1,1l0,0c0,0.6-0.5,1-1,1h-2.6c-0.6,0-1-0.5-1-1l0,0
			C194.5,57.2,194.9,56.7,195.5,56.7z"/>
		<path id="Rectangle-11_13_" class="st2" d="M195.5,67.1h2.6c0.6,0,1,0.5,1,1v0c0,0.6-0.5,1-1,1h-2.6c-0.6,0-1-0.5-1-1v0
			C194.5,67.6,194.9,67.1,195.5,67.1z"/>
		<path id="Rectangle-11_14_" class="st2" d="M195.5,77.5h2.6c0.6,0,1,0.5,1,1v0c0,0.6-0.5,1-1,1h-2.6c-0.6,0-1-0.5-1-1v0
			C194.5,78,194.9,77.5,195.5,77.5z"/>
		<path id="Rectangle-11_15_" class="st2" d="M195.5,98.3h2.6c0.6,0,1,0.5,1,1v0c0,0.6-0.5,1-1,1h-2.6c-0.6,0-1-0.5-1-1v0
			C194.5,98.8,194.9,98.3,195.5,98.3z"/>
		<path id="Rectangle-11_16_" class="st2" d="M195.5,108.8h2.6c0.6,0,1,0.5,1,1v0c0,0.6-0.5,1-1,1h-2.6c-0.6,0-1-0.5-1-1v0
			C194.5,109.2,194.9,108.8,195.5,108.8z"/>
		<path id="Rectangle-11_17_" class="st2" d="M203.3,46.3h16.1c0.6,0,1,0.5,1,1l0,0c0,0.6-0.5,1-1,1h-16.1c-0.6,0-1-0.5-1-1l0,0
			C202.3,46.8,202.8,46.3,203.3,46.3z"/>
		<path id="Rectangle-11_18_" class="st2" d="M224.2,46.3h29.2c0.6,0,1,0.5,1,1l0,0c0,0.6-0.5,1-1,1h-29.2c-0.6,0-1-0.5-1-1l0,0
			C223.1,46.8,223.6,46.3,224.2,46.3z"/>
		<path id="Rectangle-11_19_" class="st2" d="M258,46.3h10.9c0.6,0,1,0.5,1,1l0,0c0,0.6-0.5,1-1,1H258c-0.6,0-1-0.5-1-1l0,0
			C257,46.8,257.4,46.3,258,46.3z"/>
		<path id="Rectangle-11_20_" class="st2" d="M203.3,56.7h10.9c0.6,0,1,0.5,1,1l0,0c0,0.6-0.5,1-1,1h-10.9c-0.6,0-1-0.5-1-1l0,0
			C202.3,57.2,202.8,56.7,203.3,56.7z"/>
		<path id="Rectangle-11_21_" class="st2" d="M218.9,56.7h10.9c0.6,0,1,0.5,1,1l0,0c0,0.6-0.5,1-1,1h-10.9c-0.6,0-1-0.5-1-1l0,0
			C217.9,57.2,218.4,56.7,218.9,56.7z"/>
		<path id="Rectangle-11_22_" class="st2" d="M234.6,56.7h5.7c0.6,0,1,0.5,1,1l0,0c0,0.6-0.5,1-1,1h-5.7c-0.6,0-1-0.5-1-1l0,0
			C233.5,57.2,234,56.7,234.6,56.7z"/>
		<path id="Rectangle-11_23_" class="st2" d="M203.3,67.1h24c0.6,0,1,0.5,1,1v0c0,0.6-0.5,1-1,1h-24c-0.6,0-1-0.5-1-1v0
			C202.3,67.6,202.8,67.1,203.3,67.1z"/>
		<path id="Rectangle-11_24_" class="st2" d="M232,67.1h16.1c0.6,0,1,0.5,1,1v0c0,0.6-0.5,1-1,1H232c-0.6,0-1-0.5-1-1v0
			C230.9,67.6,231.4,67.1,232,67.1z"/>
		<path id="Rectangle-11_25_" class="st2" d="M203.3,77.5h24c0.6,0,1,0.5,1,1v0c0,0.6-0.5,1-1,1h-24c-0.6,0-1-0.5-1-1v0
			C202.3,78,202.8,77.5,203.3,77.5z"/>
		<path id="Rectangle-11_26_" class="st2" d="M232,77.5h31.8c0.6,0,1,0.5,1,1v0c0,0.6-0.5,1-1,1H232c-0.6,0-1-0.5-1-1v0
			C230.9,78,231.4,77.5,232,77.5z"/>
		<path id="Rectangle-11_27_" class="st2" d="M203.3,87.9h16.1c0.6,0,1,0.5,1,1v0c0,0.6-0.5,1-1,1h-16.1c-0.6,0-1-0.5-1-1v0
			C202.3,88.4,202.8,87.9,203.3,87.9z"/>
		<path id="Rectangle-11_28_" class="st2" d="M224.2,87.9h16.1c0.6,0,1,0.5,1,1v0c0,0.6-0.5,1-1,1h-16.1c-0.6,0-1-0.5-1-1v0
			C223.1,88.4,223.6,87.9,224.2,87.9z"/>
		<path id="Rectangle-11_29_" class="st2" d="M245,87.9h8.3c0.6,0,1,0.5,1,1v0c0,0.6-0.5,1-1,1H245c-0.6,0-1-0.5-1-1v0
			C243.9,88.4,244.4,87.9,245,87.9z"/>
		<path id="Rectangle-11_30_" class="st2" d="M203.3,98.3h31.8c0.6,0,1,0.5,1,1v0c0,0.6-0.5,1-1,1h-31.8c-0.6,0-1-0.5-1-1v0
			C202.3,98.8,202.8,98.3,203.3,98.3z"/>
		<path id="Rectangle-11_31_" class="st2" d="M203.3,108.8h13.5c0.6,0,1,0.5,1,1v0c0,0.6-0.5,1-1,1h-13.5c-0.6,0-1-0.5-1-1v0
			C202.3,109.2,202.8,108.8,203.3,108.8z"/>
		<path id="Case_8_" class="st0" d="M415,93.7h142.7v101.5c0,4-3.3,7.3-7.3,7.3H422.3c-4,0-7.3-3.3-7.3-7.3V93.7z"/>
		<path id="Case_9_" class="st0" d="M415,87.9c0-4,3.3-7.3,7.3-7.3h128.1c4,0,7.3,3.3,7.3,7.3v7.8H415V87.9z"/>
		<ellipse id="Oval-5_3_" class="st2" cx="426.2" cy="88.2" rx="2.3" ry="2.3"/>
		<ellipse id="Oval-5_4_" class="st2" cx="434" cy="88.2" rx="2.3" ry="2.3"/>
		<ellipse id="Oval-5_5_" class="st2" cx="441.8" cy="88.2" rx="2.3" ry="2.3"/>
		<ellipse id="Oval-6_2_" class="st3" cx="503.2" cy="148" rx="26" ry="26"/>
		<path id="Rectangle-12" class="st0" d="M500.4,118.9v6.2h6.2v-6.2H500.4z"/>
		<path id="Rectangle-12_1_" class="st0" d="M500.1,170.9v6.2h6.2v-6.2H500.1z"/>
		<path id="Rectangle-12_2_" class="st0" d="M474.1,145.2v6.2h6.2v-6.2H474.1z"/>
		<path id="Rectangle-12_3_" class="st0" d="M525.9,145.2v6.2h6.2v-6.2H525.9z"/>
		<line id="Line" class="st4" x1="529.3" y1="124.6" x2="529.3" y2="144.1"/>
		<line id="Line_1_" class="st4" x1="529.3" y1="151.9" x2="529.3" y2="171.5"/>
		<ellipse id="Oval-5_6_" class="st2" cx="529.3" cy="123.8" rx="3.1" ry="3.1"/>
		<ellipse id="Oval-5_7_" class="st2" cx="529.3" cy="173.3" rx="3.1" ry="3.1"/>
		<g id="Group-60" transform="translate(439.463238, 115.519364)">
			<path id="Rectangle-15" class="st0" d="M4.2,1h9.9c1.7,0,3.1,1.4,3.1,3.1V14c0,1.7-1.4,3.1-3.1,3.1H4.2C2.4,17.2,1,15.8,1,14V4.2
				C1,2.4,2.4,1,4.2,1z"/>
			<path id="Rectangle-15_1_" class="st0" d="M4.2,24.5h9.9c1.7,0,3.1,1.4,3.1,3.1v9.9c0,1.7-1.4,3.1-3.1,3.1H4.2
				c-1.7,0-3.1-1.4-3.1-3.1v-9.9C1,25.9,2.4,24.5,4.2,24.5z"/>
			<path id="Rectangle-15_2_" class="st0" d="M4.2,47.9h9.9c1.7,0,3.1,1.4,3.1,3.1v9.9c0,1.7-1.4,3.1-3.1,3.1H4.2
				C2.4,64,1,62.6,1,60.9V51C1,49.3,2.4,47.9,4.2,47.9z"/>
		</g>
		<ellipse id="Oval-8" class="st0" cx="632.4" cy="236" rx="15.6" ry="15.6"/>
		<ellipse id="Oval-8_1_" class="st0" cx="632.4" cy="236" rx="9.1" ry="9.1"/>
		<ellipse id="Oval-8_2_" class="st0" cx="611.6" cy="212.3" rx="5.2" ry="5.2"/>
		<path id="Rectangle-16" class="st0" d="M588.6,211c-0.6,0-1,0.5-1,1v43.7c0,2.9,2.3,5.2,5.2,5.2h35.9c2.9,0,5.2-2.3,5.2-5.2V212
			c0-0.6-0.5-1-1-1H588.6z"/>
		<path id="Rectangle-16_1_" class="st0" d="M612.9,225.1h7.3c1.7,0,3.1,1.4,3.1,3.1v10.4c0,1.7-1.4,3.1-3.1,3.1h-7.3
			c-1.7,0-3.1-1.4-3.1-3.1v-10.4C609.7,226.5,611.1,225.1,612.9,225.1z"/>
		<line id="Line-2" class="st4" x1="616.4" y1="211.4" x2="616.4" y2="223.2"/>
		<path id="Oval-8_3_" class="st0" d="M557.9,260.7c8.6,0,15.6,0,15.6,0c0-8.6-7-15.6-15.6-15.6c-8.6,0-15.6,7-15.6,15.6
			C542.3,260.7,549.3,260.7,557.9,260.7z"/>
		<path id="Rectangle-11_32_" class="st2" d="M557.9,244.6L557.9,244.6c0.6,0,1,0.5,1,1v1.3c0,0.6-0.5,1-1,1l0,0c-0.6,0-1-0.5-1-1
			v-1.3C556.9,245,557.3,244.6,557.9,244.6z"/>
		<path id="Rectangle-17" class="st0" d="M16.4,230C7.9,230,1,236.9,1,245.3c0,8.5,6.9,15.4,15.4,15.4h63c0.9,0,1.6-0.7,1.6-1.6
			v-2.4c0-1.1-0.8-2-1.9-2.1c-7.2-0.5-11-3.7-11-9.3s3.8-8.8,11-9.3c1.1-0.1,1.9-1,1.9-2.1v-2.4c0-0.9-0.7-1.6-1.6-1.6H16.4z"/>
		<path id="Rectangle-19" class="st1" d="M80.2,255.3c0,0.3-0.2,0.5-0.5,0.5l0,0h-7.4H16.1c-5.8,0-10.4-4.7-10.4-10.4
			s4.7-10.4,10.4-10.4h56.2h7.4l0,0c0.3,0,0.5,0.2,0.5,0.5"/>
		<path id="Rectangle-18" class="st2" d="M15.1,240.9h52.6c0.6,0,1,0.5,1,1v0c0,0.6-0.5,1-1,1H15.1c-0.6,0-1-0.5-1-1v0
			C14.1,241.4,14.5,240.9,15.1,240.9z"/>
		<path id="Rectangle-18_1_" class="st2" d="M15.1,247.4h52.6c0.6,0,1,0.5,1,1v0c0,0.6-0.5,1-1,1H15.1c-0.6,0-1-0.5-1-1v0
			C14.1,247.9,14.5,247.4,15.1,247.4z"/>
		<path id="Shape" class="st5" d="M65.1,178.1c-1.3-1.1-2.6-2.3-3.8-3.4c-2-1.8-4.1-3.6-6.1-5.4c-0.5-0.4-0.9-0.8-1.4-1.2
			c0,0.5,0,1.1,0,1.6c1.3-1.1,2.6-2.3,3.8-3.4c2-1.8,4.1-3.6,6.1-5.4c0.5-0.4,0.9-0.8,1.4-1.2c0.5-0.4,0.4-1.2,0-1.6
			c-0.5-0.4-1.2-0.4-1.7,0c-1.3,1.1-2.6,2.3-3.8,3.4c-2,1.8-4.1,3.6-6.1,5.4c-0.5,0.4-0.9,0.8-1.4,1.2c-0.4,0.4-0.4,1.2,0,1.6
			c1.3,1.1,2.6,2.3,3.8,3.4c2,1.8,4.1,3.6,6.1,5.4c0.5,0.4,0.9,0.8,1.4,1.2c0.5,0.4,1.2,0.5,1.7,0C65.5,179.3,65.6,178.5,65.1,178.1
			L65.1,178.1z"/>
		<path id="Shape_1_" class="st5" d="M84.6,159.6c1.3,1.1,2.6,2.3,3.8,3.4c2,1.8,4.1,3.6,6.1,5.4c0.5,0.4,0.9,0.8,1.4,1.2
			c0-0.5,0-1.1,0-1.6c-1.3,1.1-2.6,2.3-3.8,3.4c-2,1.8-4.1,3.6-6.1,5.4c-0.5,0.4-0.9,0.8-1.4,1.2c-0.5,0.4-0.4,1.2,0,1.6
			c0.5,0.4,1.2,0.4,1.7,0c1.3-1.1,2.6-2.3,3.8-3.4c2-1.8,4.1-3.6,6.1-5.4c0.5-0.4,0.9-0.8,1.4-1.2c0.4-0.4,0.4-1.2,0-1.6
			c-1.3-1.1-2.6-2.3-3.8-3.4c-2-1.8-4.1-3.6-6.1-5.4c-0.5-0.4-0.9-0.8-1.4-1.2c-0.5-0.4-1.2-0.5-1.7,0
			C84.2,158.4,84.1,159.1,84.6,159.6L84.6,159.6z"/>
		<path id="Shape_2_" class="st5" d="M70.7,184.9c0.4-1,0.7-2.1,1-3.1c0.8-2.5,1.7-5,2.5-7.5c1-3,2-6,3-9.1c0.9-2.6,1.7-5.2,2.6-7.8
			c0.4-1.3,0.9-2.5,1.3-3.8c0,0,0,0,0-0.1c0.2-0.6-0.2-1.3-0.8-1.4c-0.6-0.1-1.2,0.2-1.4,0.8c-0.4,1-0.7,2.1-1,3.1
			c-0.8,2.5-1.7,5-2.5,7.5c-1,3-2,6-3,9.1c-0.9,2.6-1.7,5.2-2.6,7.8c-0.4,1.3-0.9,2.5-1.3,3.8c0,0,0,0,0,0.1
			c-0.2,0.6,0.2,1.3,0.8,1.4C69.9,185.8,70.5,185.5,70.7,184.9L70.7,184.9z"/>
	</g>
</g>
</svg>
